HIERARCHY
ROOT hip
{
  OFFSET 0 0 0
  CHANNELS 6 Xposition Yposition Zposition Zrotation Yrotation Xrotation
  JOINT abdomen
  {
    OFFSET 0 20.6881 -0.73152
    CHANNELS 3 Zrotation Xrotation Yrotation
    JOINT chest
    {
      OFFSET 0 11.7043 -0.48768
      CHANNELS 3 Zrotation Xrotation Yrotation
      JOINT neck
      {
        OFFSET 0 22.1894 -2.19456
        CHANNELS 3 Zrotation Xrotation Yrotation
        JOINT head
        {
          OFFSET -0.24384 7.07133 1.2192
          CHANNELS 3 Zrotation Xrotation Yrotation
          JOINT leftEye
          {
            OFFSET 4.14528 8.04674 8.04672
            CHANNELS 3 Zrotation Xrotation Yrotation
            End Site
            {
              OFFSET 1 0 0
            }
          }
          JOINT rightEye
          {
            OFFSET -3.6576 8.04674 8.04672
            CHANNELS 3 Zrotation Xrotation Yrotation
            End Site
            {
              OFFSET 1 0 0
            }
          }
        }
      }
      JOINT rCollar
      {
        OFFSET -2.68224 19.2634 -4.8768
        CHANNELS 3 Zrotation Xrotation Yrotation
        JOINT rShldr
        {
          OFFSET -8.77824 -1.95073 1.46304
          CHANNELS 3 Zrotation Xrotation Yrotation
          JOINT rForeArm
          {
            OFFSET -28.1742 -1.7115 0.48768
            CHANNELS 3 Zrotation Xrotation Yrotation
            JOINT rHand
            {
              OFFSET -22.5879 0.773209 7.07136
              CHANNELS 3 Zrotation Xrotation Yrotation
              JOINT rThumb1
              {
                OFFSET -1.2192 -0.487915 3.41376
                CHANNELS 3 Zrotation Xrotation Yrotation
                JOINT rThumb2
                {
                  OFFSET -3.37035 -0.52449 3.41376
                  CHANNELS 3 Zrotation Xrotation Yrotation
                  End Site
                  {
                    OFFSET -1.78271 -1.18214 1.43049
                  }
                }
              }
              JOINT rIndex1
              {
                OFFSET -7.75947 0.938293 5.60832
                CHANNELS 3 Zrotation Xrotation Yrotation
                JOINT rIndex2
                {
                  OFFSET -2.54057 -0.884171 1.56538
                  CHANNELS 3 Zrotation Xrotation Yrotation
                  End Site
                  {
                    OFFSET -1.62519 -0.234802 1.16502
                  }
                }
              }
              JOINT rMid1
              {
                OFFSET -8.24714 1.18213 3.41376
                CHANNELS 3 Zrotation Xrotation Yrotation
                JOINT rMid2
                {
                  OFFSET -3.10165 -0.590103 1.0647
                  CHANNELS 3 Zrotation Xrotation Yrotation
                  End Site
                  {
                    OFFSET -2.48547 -0.328903 0.83742
                  }
                }
              }
              JOINT rRing1
              {
                OFFSET -8.82822 0.546677 1.51678
                CHANNELS 3 Zrotation Xrotation Yrotation
                JOINT rRing2
                {
                  OFFSET -2.60934 -0.819778 -0.0198488
                  CHANNELS 3 Zrotation Xrotation Yrotation
                  End Site
                  {
                    OFFSET -2.33842 -0.294052 0.168128
                  }
                }
              }
              JOINT rPinky1
              {
                OFFSET -8.27202 -0.0477905 -0.4584
                CHANNELS 3 Zrotation Xrotation Yrotation
                JOINT rPinky2
                {
                  OFFSET -1.82734 -0.647385 -0.700984
                  CHANNELS 3 Zrotation Xrotation Yrotation
                  End Site
                  {
                    OFFSET -1.69225 -0.51767 -0.607171
                  }
                }
              }
            }
          }
        }
      }
      JOINT lCollar
      {
        OFFSET 2.68224 19.2634 -4.8768
        CHANNELS 3 Zrotation Xrotation Yrotation
        JOINT lShldr
        {
          OFFSET 8.77824 -1.95073 1.46304
          CHANNELS 3 Zrotation Xrotation Yrotation
          JOINT lForeArm
          {
            OFFSET 28.1742 -1.7115 0.48768
            CHANNELS 3 Zrotation Xrotation Yrotation
            JOINT lHand
            {
              OFFSET 22.5879 0.773209 7.07136
              CHANNELS 3 Zrotation Xrotation Yrotation
              JOINT lThumb1
              {
                OFFSET 1.2192 -0.487915 3.41376
                CHANNELS 3 Zrotation Xrotation Yrotation
                JOINT lThumb2
                {
                  OFFSET 3.37035 -0.52449 3.41376
                  CHANNELS 3 Zrotation Xrotation Yrotation
                  End Site
                  {
                    OFFSET 1.78271 -1.18214 1.43049
                  }
                }
              }
              JOINT lIndex1
              {
                OFFSET 7.75947 0.938293 5.60832
                CHANNELS 3 Zrotation Xrotation Yrotation
                JOINT lIndex2
                {
                  OFFSET 2.54057 -0.884171 1.56538
                  CHANNELS 3 Zrotation Xrotation Yrotation
                  End Site
                  {
                    OFFSET 1.62519 -0.234802 1.16502
                  }
                }
              }
              JOINT lMid1
              {
                OFFSET 8.24714 1.18213 3.41376
                CHANNELS 3 Zrotation Xrotation Yrotation
                JOINT lMid2
                {
                  OFFSET 3.10165 -0.590103 1.0647
                  CHANNELS 3 Zrotation Xrotation Yrotation
                  End Site
                  {
                    OFFSET 2.48547 -0.328903 0.83742
                  }
                }
              }
              JOINT lRing1
              {
                OFFSET 8.82822 0.546677 1.51678
                CHANNELS 3 Zrotation Xrotation Yrotation
                JOINT lRing2
                {
                  OFFSET 2.60934 -0.819778 -0.0198488
                  CHANNELS 3 Zrotation Xrotation Yrotation
                  End Site
                  {
                    OFFSET 2.33842 -0.294052 0.168128
                  }
                }
              }
              JOINT lPinky1
              {
                OFFSET 8.27202 -0.0477905 -0.4584
                CHANNELS 3 Zrotation Xrotation Yrotation
                JOINT lPinky2
                {
                  OFFSET 1.82734 -0.647385 -0.700984
                  CHANNELS 3 Zrotation Xrotation Yrotation
                  End Site
                  {
                    OFFSET 1.69225 -0.51767 -0.607171
                  }
                }
              }
            }
          }
        }
      }
    }
  }
  JOINT rButtock
  {
    OFFSET -8.77824 4.35084 1.2192
    CHANNELS 3 Zrotation Xrotation Yrotation
    JOINT rThigh
    {
      OFFSET 0 -1.70687 -2.19456
      CHANNELS 3 Zrotation Xrotation Yrotation
      JOINT rShin
      {
        OFFSET 0 -36.8199 0.73152
        CHANNELS 3 Zrotation Xrotation Yrotation
        JOINT rFoot
        {
          OFFSET 0.73152 -45.1104 -5.12064
          CHANNELS 3 Zrotation Xrotation Yrotation
          End Site
          {
            OFFSET -1.1221 -3.69964 12.103
          }
        }
      }
    }
  }
  JOINT lButtock
  {
    OFFSET 8.77824 4.35084 1.2192
    CHANNELS 3 Zrotation Xrotation Yrotation
    JOINT lThigh
    {
      OFFSET 0 -1.70687 -2.19456
      CHANNELS 3 Zrotation Xrotation Yrotation
      JOINT lShin
      {
        OFFSET 0 -36.8199 0.73152
        CHANNELS 3 Zrotation Xrotation Yrotation
        JOINT lFoot
        {
          OFFSET -0.73152 -45.1104 -5.12064
          CHANNELS 3 Zrotation Xrotation Yrotation
          End Site
          {
            OFFSET 1.1221 -3.69964 12.103
          }
        }
      }
    }
  }
}
MOTION
Frames:	6
Frame Time:	0.00833333
-75.7054 85.0933 -26.0726 -32.8635 -71.7937 38.5045 13.2438 -5.24605 -1.54724 0.445535 -0.622679 -0.646794 -14.9536 7.68815 -14.7266 16.0585 -17.7411 -24.5121 -0.0 0.0 0.0 -0.0 0.0 0.0 -2.30842e-14 -3.00204e-14 4.96962e-15 74.9571 16.3502 6.16137 -19.3856 -12.2583 37.2087 -0.00021429 -0.417992 -0.058746 2.56447e-10 -3.11004e-10 1.17948e-10 4.4316e-10 -5.36356e-10 2.03583e-10 2.56455e-10 -3.11005e-10 1.17935e-10 7.73091 5.47488 0.417314 2.5645e-10 -3.11006e-10 1.17948e-10 2.90554 0.965183 0.102902 2.56453e-10 -3.11007e-10 1.17947e-10 10.2786 0.731801 0.0259123 2.56439e-10 -3.11005e-10 1.1796e-10 2.22167 -0.733487 -0.20892 -2.30354e-14 -3.0011e-14 4.57205e-15 -79.8766 -23.5725 17.3862 8.06843 -3.04764 -14.2258 3.45658 45.5183 -8.22766 -6.48735e-10 7.0555e-10 1.02408e-09 -1.08095e-09 1.23674e-09 1.78525e-09 -6.48744e-10 7.0555e-10 1.02408e-09 -7.73091 5.47488 -0.417314 -6.48734e-10 7.05549e-10 1.02408e-09 -2.90554 0.965183 -0.102902 -6.48742e-10 7.0555e-10 1.02408e-09 -10.2786 0.731801 -0.0259123 -6.48729e-10 7.05553e-10 1.02408e-09 -2.22167 -0.733487 0.20892 -2.03217e-16 0.0 -3.88251e-19 15.624 -17.5335 4.34881 -0.0422265 15.885 0.0673285 -1.41007 -0.699305 -13.2317 2.03217e-16 0.0 3.88251e-19 17.3369 -24.7166 3.28334 0.728078 53.3841 -1.14447 0.367611 4.63578 -9.29534
-76.3404 85.0872 -25.9671 -33.3028 -71.9047 38.9778 13.283 -5.06748 -1.44045 0.430967 -0.621537 -0.611603 -14.9736 7.70797 -14.7458 16.1421 -17.8005 -24.5327 -0.0 0.0 0.0 -0.0 0.0 0.0 -1.70982e-14 -9.78384e-14 5.37251e-14 75.7186 15.4723 5.84815 -18.7324 -11.4941 35.6997 -0.000292167 -0.349985 -0.0491841 3.47423e-10 -4.02129e-10 6.07861e-12 6.00614e-10 -6.93962e-10 1.01961e-11 3.47433e-10 -4.02129e-10 6.06283e-12 7.73091 5.47488 0.417314 3.47428e-10 -4.02131e-10 6.07867e-12 2.90554 0.965183 0.102902 3.4743e-10 -4.02132e-10 6.07904e-12 10.2786 0.731801 0.0259123 3.47416e-10 -4.0213e-10 6.09147e-12 2.22167 -0.733487 -0.20892 -1.7064e-14 -9.78302e-14 5.33057e-14 -79.9685 -22.7577 17.514 8.16856 -3.10071 -14.4088 3.30907 44.7963 -8.02054 -5.33112e-10 8.3121e-10 1.25968e-09 -8.74388e-10 1.44508e-09 2.1874e-09 -5.33121e-10 8.31209e-10 1.25969e-09 -7.73091 5.47488 -0.417314 -5.33111e-10 8.31208e-10 1.25968e-09 -2.90554 0.965183 -0.102902 -5.3312e-10 8.3121e-10 1.25968e-09 -10.2786 0.731801 -0.0259123 -5.33107e-10 8.31213e-10 1.25968e-09 -2.22167 -0.733487 0.20892 -2.03217e-16 0.0 -3.88251e-19 15.8052 -17.1569 4.49698 -0.0390883 15.9455 0.0815538 -1.48693 -1.0621 -13.2707 2.03217e-16 0.0 3.88251e-19 17.7406 -25.604 3.5778 0.735868 53.5522 -1.1484 0.259616 3.92677 -8.38917
-76.9692 85.0809 -25.8548 -33.726 -72.0213 39.4442 13.313 -4.89306 -1.33213 0.411181 -0.624017 -0.576285 -14.9898 7.73122 -14.7646 16.2254 -17.8618 -24.5537 -0.0 0.0 0.0 -0.0 0.0 0.0 -9.21486e-15 -9.49184e-14 7.63364e-14 76.4163 14.5352 5.55902 -18.0836 -10.7774 34.2119 -0.000440323 -0.188896 -0.0265379 5.07306e-10 -4.80485e-10 -1.39156e-10 8.76936e-10 -8.29297e-10 -2.41434e-10 5.07318e-10 -4.80485e-10 -1.39175e-10 7.73091 5.47488 0.417314 5.07311e-10 -4.80488e-10 -1.39155e-10 2.90554 0.965183 0.102902 5.07313e-10 -4.8049e-10 -1.39153e-10 10.2786 0.731801 0.0259123 5.073e-10 -4.80486e-10 -1.39142e-10 2.22167 -0.733487 -0.20892 -9.22615e-15 -9.49134e-14 7.58954e-14 -80.1158 -21.7898 17.5897 8.29167 -3.16607 -14.6347 3.14108 43.93 -7.78012 -4.31303e-10 1.04461e-09 1.62498e-09 -6.87521e-10 1.80675e-09 2.81424e-09 -4.3131e-10 1.04461e-09 1.62498e-09 -7.73091 5.47488 -0.417314 -4.31301e-10 1.04461e-09 1.62498e-09 -2.90554 0.965183 -0.102902 -4.31311e-10 1.04461e-09 1.62498e-09 -10.2786 0.731801 -0.0259123 -4.31298e-10 1.04462e-09 1.62497e-09 -2.22167 -0.733487 0.20892 -2.03217e-16 0.0 -3.88251e-19 15.9642 -16.785 4.6459 -0.0357335 15.9979 0.0965212 -1.56384 -1.41784 -13.3161 2.03217e-16 0.0 3.88251e-19 18.1218 -26.4687 3.85261 0.73874 53.6049 -1.14802 0.179403 3.22693 -7.45691
-77.5923 85.0748 -25.7358 -34.1325 -72.1433 39.9033 13.3336 -4.72611 -1.22321 0.386105 -0.629662 -0.541218 -15.0025 7.75746 -14.7824 16.3068 -17.921 -24.5746 -0.0 0.0 0.0 -0.0 0.0 0.0 5.56586e-15 -2.64258e-14 9.90456e-14 77.0538 13.5621 5.28451 -17.4389 -10.0991 32.7641 -0.000441436 0.0664178 0.00934518 5.10425e-10 -6.31146e-10 -1.89833e-10 8.82448e-10 -1.09024e-09 -3.28881e-10 5.10438e-10 -6.31146e-10 -1.89854e-10 7.73091 5.47488 0.417314 5.1043e-10 -6.3115e-10 -1.89831e-10 2.90554 0.965183 0.102902 5.10432e-10 -6.31152e-10 -1.89827e-10 10.2786 0.731801 0.0259123 5.10419e-10 -6.31148e-10 -1.89819e-10 2.22167 -0.733487 -0.20892 5.50704e-15 -2.64242e-14 9.85922e-14 -80.2929 -20.7504 17.631 8.43186 -3.24127 -14.8922 2.96732 42.9863 -7.52679 -3.68896e-10 1.1678e-09 1.83232e-09 -5.73263e-10 2.01381e-09 3.17016e-09 -3.68902e-10 1.1678e-09 1.83232e-09 -7.73091 5.47488 -0.417314 -3.68892e-10 1.16779e-09 1.83231e-09 -2.90554 0.965183 -0.102902 -3.68904e-10 1.1678e-09 1.83232e-09 -10.2786 0.731801 -0.0259123 -3.68891e-10 1.1678e-09 1.83231e-09 -2.22167 -0.733487 0.20892 -2.03217e-16 0.0 -3.88251e-19 16.1002 -16.4144 4.79439 -0.0325475 16.0371 0.111859 -1.64051 -1.76593 -13.3638 2.03217e-16 0.0 3.88251e-19 18.4817 -27.3007 4.10736 0.736242 53.5335 -1.14281 0.127793 2.55514 -6.52072
-78.2104 85.0692 -25.6097 -34.5232 -72.271 40.3564 13.3448 -4.56995 -1.11458 0.355665 -0.638014 -0.50678 -15.012 7.78621 -14.7986 16.3847 -17.9742 -24.5946 -0.0 0.0 0.0 -0.0 0.0 0.0 3.22439e-14 1.02474e-13 1.48095e-13 77.6349 12.5762 5.01507 -16.7979 -9.45013 31.3758 -0.000213376 0.417101 0.0586207 1.31109e-10 -9.39186e-10 -1.80306e-11 2.27474e-10 -1.62468e-09 -2.97175e-11 1.31122e-10 -9.39185e-10 -1.80528e-11 7.73091 5.47488 0.417314 1.31113e-10 -9.3919e-10 -1.80274e-11 2.90554 0.965183 0.102902 1.31116e-10 -9.39192e-10 -1.80242e-11 10.2786 0.731801 0.0259123 1.31103e-10 -9.39188e-10 -1.80178e-11 2.22167 -0.733487 -0.20892 3.21645e-14 1.02474e-13 1.47647e-13 -80.4746 -19.7212 17.6536 8.58328 -3.32384 -15.1703 2.79943 42.0325 -7.27824 -3.71479e-10 1.02282e-09 1.59406e-09 -5.84526e-10 1.75834e-09 2.75959e-09 -3.71484e-10 1.02282e-09 1.59406e-09 -7.73091 5.47488 -0.417314 -3.71475e-10 1.02281e-09 1.59405e-09 -2.90554 0.965183 -0.102902 -3.71488e-10 1.02282e-09 1.59406e-09 -10.2786 0.731801 -0.0259123 -3.71475e-10 1.02282e-09 1.59405e-09 -2.22167 -0.733487 0.20892 -2.03217e-16 0.0 -3.88251e-19 16.2123 -16.0416 4.94128 -0.0299091 16.0584 0.127195 -1.71652 -2.10579 -13.4092 2.03217e-16 0.0 3.88251e-19 18.8212 -28.0902 4.34146 0.72803 53.3294 -1.13235 0.103311 1.93061 -5.60254
-78.825 85.0643 -25.4766 -34.9015 -72.4054 40.805 13.346 -4.42403 -1.0049 0.31959 -0.649465 -0.472585 -15.0181 7.81845 -14.8135 16.4591 -18.0223 -24.6144 -0.0 0.0 0.0 -0.0 0.0 0.0 8.83739e-14 3.89955e-13 2.55402e-13 78.1581 11.5703 4.75111 -16.1683 -8.84106 30.0418 -0.00069119 0.872093 0.122586 -9.95256e-10 -1.59196e-09 6.0004e-10 -1.7175e-09 -2.75795e-09 1.04484e-09 -9.95243e-10 -1.59196e-09 6.00018e-10 7.73091 5.47488 0.417314 -9.95252e-10 -1.59197e-09 6.00042e-10 2.90554 0.965183 0.102902 -9.95248e-10 -1.59197e-09 6.00044e-10 10.2786 0.731801 0.0259123 -9.95261e-10 -1.59197e-09 6.00049e-10 2.22167 -0.733487 -0.20892 8.83193e-14 3.89956e-13 2.54994e-13 -80.6622 -18.6963 17.6559 8.74752 -3.41456 -15.4724 2.63628 41.0639 -7.03285 -4.87009e-10 3.67018e-10 5.13479e-10 -8.15654e-10 6.20602e-10 8.99881e-10 -4.87015e-10 3.67016e-10 5.13483e-10 -7.73091 5.47488 -0.417314 -4.87005e-10 3.67012e-10 5.13473e-10 -2.90554 0.965183 -0.102902 -4.87018e-10 3.67017e-10 5.1348e-10 -10.2786 0.731801 -0.0259123 -4.87005e-10 3.67019e-10 5.13471e-10 -2.22167 -0.733487 0.20892 -2.03217e-16 0.0 -3.88251e-19 16.2997 -15.6667 5.0869 -0.0278309 16.0616 0.142801 -1.79178 -2.43745 -13.4533 2.03217e-16 0.0 3.88251e-19 19.1372 -28.8377 4.5543 0.714129 52.9888 -1.1169 0.103886 1.35224 -4.6918
